<svg xmlns="http://www.w3.org/2000/svg" viewBox="0 0 320 100" shape-rendering="crispEdges">
  <!-- 背景 -->
  <rect width="320" height="100" fill="#0a0a0f"/>
  
  <!-- 像素星球 (8x8 格子) -->
  <g transform="translate(20, 20)">
    <!-- 外圈绿色像素 -->
    <rect x="8" y="0" width="8" height="1" fill="#00ff88"/>
    <rect x="0" y="8" width="1" height="8" fill="#00ff88"/>
    <rect x="23" y="8" width="1" height="8" fill="#00ff88"/>
    <rect x="8" y="23" width="8" height="1" fill="#00ff88"/>
    <!-- 角落 -->
    <rect x="0" y="0" width="1" height="1" fill="#00ff88"/>
    <rect x="23" y="0" width="1" height="1" fill="#00ff88"/>
    <rect x="0" y="23" width="1" height="1" fill="#00ff88"/>
    <rect x="23" y="23" width="1" height="1" fill="#00ff88"/>
    <!-- 内部青色填充 -->
    <rect x="8" y="8" width="8" height="8" fill="#00ccaa"/>
    <!-- 高光点 -->
    <rect x="10" y="10" width="2" height="2" fill="#88ffee"/>
    <rect x="14" y="12" width="1" height="1" fill="#88ffee"/>
  </g>
  
  <!-- 像素爪子/龙虾 (16x16 格子) -->
  <g transform="translate(55, 15)">
    <!-- 身体 -->
    <rect x="4" y="6" width="8" height="8" fill="#ff6b6b"/>
    <rect x="3" y="7" width="1" height="6" fill="#ee5a5a"/>
    <rect x="12" y="7" width="1" height="6" fill="#ee5a5a"/>
    <!-- 尾巴 -->
    <rect x="5" y="14" width="6" height="2" fill="#dd4444"/>
    <!-- 眼睛 -->
    <rect x="5" y="4" width="2" height="2" fill="#ffffff"/>
    <rect x="9" y="4" width="2" height="2" fill="#ffffff"/>
    <rect x="5" y="5" width="1" height="1" fill="#000000"/>
    <rect x="9" y="5" width="1" height="1" fill="#000000"/>
    <!-- 左钳子 -->
    <rect x="0" y="2" width="4" height="4" fill="#ff6b6b"/>
    <rect x="-2" y="0" width="2" height="2" fill="#ff6b6b"/>
    <rect x="-3" y="-2" width="1" height="2" fill="#dd4444"/>
    <!-- 右钳子 -->
    <rect x="12" y="2" width="4" height="4" fill="#ff6b6b"/>
    <rect x="16" y="0" width="2" height="2" fill="#ff6b6b"/>
    <rect x="17" y="-2" width="1" height="2" fill="#dd4444"/>
    <!-- 腿 -->
    <rect x="2" y="16" width="1" height="3" fill="#dd4444"/>
    <rect x="6" y="16" width="1" height="3" fill="#dd4444"/>
    <rect x="10" y="16" width="1" height="3" fill="#dd4444"/>
    <rect x="13" y="16" width="1" height="3" fill="#dd4444"/>
  </g>
  
  <!-- 文字: openclaws -->
  <g transform="translate(90, 55)" font-family="'Press Start 2P', 'Courier New', monospace" font-size="16">
    <!-- o -->
    <rect x="0" y="0" width="2" height="2" fill="#00ff88"/>
    <rect x="0" y="4" width="2" height="2" fill="#00ff88"/>
    <rect x="0" y="8" width="2" height="2" fill="#00ff88"/>
    <rect x="2" y="0" width="1" height="1" fill="#00ff88"/>
    <rect x="3" y="1" width="1" height="1" fill="#00ff88"/>
    <rect x="3" y="4" width="1" height="1" fill="#00ff88"/>
    <rect x="3" y="8" width="1" height="1" fill="#00ff88"/>
    <rect x="2" y="9" width="1" height="1" fill="#00ff88"/>
    <rect x="0" y="2" width="2" height="1" fill="#00ff88"/>
    <rect x="0" y="7" width="2" height="1" fill="#00ff88"/>
    <rect x="1" y="3" width="2" height="4" fill="#00ff88"/>
    
    <!-- p -->
    <rect x="6" y="0" width="2" height="2" fill="#00ccff"/>
    <rect x="6" y="4" width="2" height="6" fill="#00ccff"/>
    <rect x="6" y="2" width="2" height="1" fill="#00ccff"/>
    <rect x="6" y="3" width="1" height="1" fill="#00ccff"/>
    <rect x="9" y="0" width="1" height="1" fill="#00ccff"/>
    <rect x="10" y="1" width="1" height="1" fill="#00ccff"/>
    <rect x="10" y="4" width="1" height="1" fill="#00ccff"/>
    <rect x="10" y="5" width="1" height="1" fill="#00ccff"/>
    <rect x="10" y="6" width="1" height="1" fill="#00ccff"/>
    <rect x="9" y="7" width="1" height="1" fill="#00ccff"/>
    <rect x="8" y="8" width="1" height="1" fill="#00ccff"/>
    
    <!-- e -->
    <rect x="13" y="2" width="2" height="1" fill="#ff6b9d"/>
    <rect x="13" y="4" width="2" height="1" fill="#ff6b9d"/>
    <rect x="13" y="8" width="2" height="1" fill="#ff6b9d"/>
    <rect x="13" y="3" width="1" height="4" fill="#ff6b9d"/>
    <rect x="14" y="4" width="1" height="1" fill="#ff6b9d"/>
    <rect x="14" y="6" width="1" height="1" fill="#ff6b9d"/>
    
    <!-- n -->
    <rect x="18" y="2" width="2" height="7" fill="#00ff88"/>
    <rect x="22" y="2" width="2" height="7" fill="#00ff88"/>
    <rect x="20" y="2" width="2" height="2" fill="#00ff88"/>
    <rect x="20" y="4" width="1" height="1" fill="#00ff88"/>
    <rect x="21" y="5" width="1" height="1" fill="#00ff88"/>
    <rect x="22" y="6" width="1" height="1" fill="#00ff88"/>
    
    <!-- c -->
    <rect x="27" y="2" width="2" height="1" fill="#00ccff"/>
    <rect x="27" y="8" width="2" height="1" fill="#00ccff"/>
    <rect x="27" y="3" width="1" height="5" fill="#00ccff"/>
    <rect x="28" y="4" width="1" height="1" fill="#00ccff"/>
    <rect x="28" y="6" width="1" height="1" fill="#00ccff"/>
    
    <!-- l -->
    <rect x="32" y="0" width="2" height="10" fill="#ff6b9d"/>
    <rect x="32" y="2" width="1" height="1" fill="#ff6b9d"/>
    <rect x="33" y="1" width="1" height="1" fill="#ff6b9d"/>
    
    <!-- a -->
    <rect x="37" y="4" width="2" height="6" fill="#00ff88"/>
    <rect x="41" y="4" width="2" height="6" fill="#00ff88"/>
    <rect x="37" y="2" width="2" height="2" fill="#00ff88"/>
    <rect x="41" y="2" width="2" height="2" fill="#00ff88"/>
    <rect x="39" y="2" width="2" height="2" fill="#00ff88"/>
    <rect x="39" y="4" width="1" height="1" fill="#00ff88"/>
    <rect x="40" y="5" width="1" height="1" fill="#00ff88"/>
    <rect x="41" y="6" width="1" height="1" fill="#00ff88"/>
    
    <!-- w -->
    <rect x="46" y="2" width="2" height="7" fill="#00ccff"/>
    <rect x="50" y="4" width="2" height="5" fill="#00ccff"/>
    <rect x="54" y="2" width="2" height="7" fill="#00ccff"/>
    <rect x="48" y="6" width="1" height="1" fill="#00ccff"/>
    <rect x="49" y="7" width="1" height="1" fill="#00ccff"/>
    <rect x="52" y="7" width="1" height="1" fill="#00ccff"/>
    <rect x="53" y="6" width="1" height="1" fill="#00ccff"/>
    
    <!-- s -->
    <rect x="59" y="2" width="2" height="1" fill="#ff6b9d"/>
    <rect x="59" y="4" width="2" height="1" fill="#ff6b9d"/>
    <rect x="59" y="8" width="2" height="1" fill="#ff6b9d"/>
    <rect x="59" y="3" width="1" height="1" fill="#ff6b9d"/>
    <rect x="60" y="5" width="1" height="1" fill="#ff6b9d"/>
    <rect x="60" y="6" width="1" height="1" fill="#ff6b9d"/>
    <rect x="61" y="7" width="1" height="1" fill="#ff6b9d"/>
  </g>
  
  <!-- 装饰性像素点 -->
  <rect x="280" y="10" width="2" height="2" fill="#00ff88"/>
  <rect x="290" y="20" width="1" height="1" fill="#00ccff"/>
  <rect x="285" y="30" width="2" height="2" fill="#ff6b9d"/>
  <rect x="295" y="40" width="1" height="1" fill="#00ff88"/>
  <rect x="275" y="50" width="2" height="2" fill="#00ccff"/>
  <rect x="300" y="15" width="1" height="1" fill="#ff6b9d"/>
  <rect x="305" y="35" width="2" height="2" fill="#00ff88"/>
  <rect x="280" y="60" width="1" height="1" fill="#00ccff"/>
  <rect x="290" y="70" width="2" height="2" fill="#ff6b9d"/>
  <rect x="300" y="55" width="1" height="1" fill="#00ff88"/>
  
  <!-- 底部装饰 -->
  <rect x="0" y="90" width="320" height="1" fill="#1a1a2e"/>
  <rect x="10" y="92" width="8" height="1" fill="#1a1a2e"/>
  <rect x="30" y="94" width="4" height="1" fill="#1a1a2e"/>
  <rect x="50" y="91" width="6" height="1" fill="#1a1a2e"/>
  <rect x="280" y="93" width="10" height="1" fill="#1a1a2e"/>
  <rect x="300" y="95" width="5" height="1" fill="#1a1a2e"/>
</svg>
