<svg xmlns="http://www.w3.org/2000/svg" viewBox="0 0 500 160">
  <defs>
    <!-- 渐变定义 -->
    <linearGradient id="textGrad" x1="0%" y1="0%" x2="100%" y2="0%">
      <stop offset="0%" stop-color="#00ff88"/>
      <stop offset="50%" stop-color="#00ccff"/>
      <stop offset="100%" stop-color="#ff6b9d"/>
    </linearGradient>
  </defs>
  
  <!-- 左侧红色龙虾 -->
  <g transform="translate(30, 80)">
    <!-- 身体 -->
    <ellipse cx="0" cy="0" rx="18" ry="22" fill="#e74c3c"/>
    <!-- 尾巴 -->
    <path d="M-10 18 Q0 30 10 18" fill="#c0392b"/>
    <!-- 眼睛 -->
    <circle cx="-6" cy="-12" r="3" fill="#fff"/>
    <circle cx="6" cy="-12" r="3" fill="#fff"/>
    <circle cx="-6" cy="-12" r="1.5" fill="#000"/>
    <circle cx="6" cy="-12" r="1.5" fill="#000"/>
    <!-- 左钳子 -->
    <path d="M-16 -8 Q-35 -40 -22 -55 Q-14 -48 -10 -32" fill="#e74c3c" stroke="#c0392b" stroke-width="1.5"/>
    <path d="M-22 -55 L-30 -68 M-22 -55 L-18 -70 M-22 -55 L-24 -72" stroke="#c0392b" stroke-width="2" stroke-linecap="round"/>
    <!-- 右钳子 -->
    <path d="M16 -8 Q35 -40 22 -55 Q14 -48 10 -32" fill="#e74c3c" stroke="#c0392b" stroke-width="1.5"/>
    <path d="M22 -55 L30 -68 M22 -55 L18 -70 M22 -55 L24 -72" stroke="#c0392b" stroke-width="2" stroke-linecap="round"/>
    <!-- 腿 -->
    <path d="M-12 15 L-20 28 M-8 16 L-12 30 M8 16 L12 30 M12 15 L20 28" stroke="#c0392b" stroke-width="1.5" stroke-linecap="round"/>
  </g>
  
  <!-- 中间绿色龙虾 (最大) -->
  <g transform="translate(130, 70)">
    <!-- 身体 -->
    <ellipse cx="0" cy="0" rx="24" ry="30" fill="#2ecc71"/>
    <!-- 触角 -->
    <path d="M-5 -28 Q-15 -50 -5 -60" stroke="#27ae60" stroke-width="1.5" fill="none"/>
    <path d="M5 -28 Q15 -50 5 -60" stroke="#27ae60" stroke-width="1.5" fill="none"/>
    <!-- 尾巴 -->
    <path d="M-14 26 Q0 42 14 26" fill="#27ae60"/>
    <!-- 眼睛 -->
    <circle cx="-8" cy="-16" r="4" fill="#fff"/>
    <circle cx="8" cy="-16" r="4" fill="#fff"/>
    <circle cx="-8" cy="-16" r="2" fill="#000"/>
    <circle cx="8" cy="-16" r="2" fill="#000"/>
    <!-- 左钳子 (最大) -->
    <path d="M-22 -12 Q-50 -55 -32 -78 Q-20 -68 -14 -45" fill="#2ecc71" stroke="#27ae60" stroke-width="2"/>
    <path d="M-32 -78 L-44 -95 M-32 -78 L-28 -98 M-32 -78 L-36 -100" stroke="#27ae60" stroke-width="3" stroke-linecap="round"/>
    <!-- 右钳子 (最大) -->
    <path d="M22 -12 Q50 -55 32 -78 Q20 -68 14 -45" fill="#2ecc71" stroke="#27ae60" stroke-width="2"/>
    <path d="M32 -78 L44 -95 M32 -78 L28 -98 M32 -78 L36 -100" stroke="#27ae60" stroke-width="3" stroke-linecap="round"/>
    <!-- 腿 -->
    <path d="M-16 22 L-26 40 M-10 24 L-16 42 M10 24 L16 42 M16 22 L26 40" stroke="#27ae60" stroke-width="2" stroke-linecap="round"/>
  </g>
  
  <!-- 右侧蓝色龙虾 -->
  <g transform="translate(250, 80)">
    <!-- 身体 -->
    <ellipse cx="0" cy="0" rx="18" ry="22" fill="#3498db"/>
    <!-- 尾巴 -->
    <path d="M-10 18 Q0 30 10 18" fill="#2980b9"/>
    <!-- 眼睛 -->
    <circle cx="-6" cy="-12" r="3" fill="#fff"/>
    <circle cx="6" cy="-12" r="3" fill="#fff"/>
    <circle cx="-6" cy="-12" r="1.5" fill="#000"/>
    <circle cx="6" cy="-12" r="1.5" fill="#000"/>
    <!-- 左钳子 -->
    <path d="M-16 -8 Q-35 -40 -22 -55 Q-14 -48 -10 -32" fill="#3498db" stroke="#2980b9" stroke-width="1.5"/>
    <path d="M-22 -55 L-30 -68 M-22 -55 L-18 -70 M-22 -55 L-24 -72" stroke="#2980b9" stroke-width="2" stroke-linecap="round"/>
    <!-- 右钳子 -->
    <path d="M16 -8 Q35 -40 22 -55 Q14 -48 10 -32" fill="#3498db" stroke="#2980b9" stroke-width="1.5"/>
    <path d="M22 -55 L30 -68 M22 -55 L18 -70 M22 -55 L24 -72" stroke="#2980b9" stroke-width="2" stroke-linecap="round"/>
    <!-- 腿 -->
    <path d="M-12 15 L-20 28 M-8 16 L-12 30 M8 16 L12 30 M12 15 L20 28" stroke="#2980b9" stroke-width="1.5" stroke-linecap="round"/>
  </g>
  
  <!-- openclaws 文字 -->
  <text x="300" y="105" font-family="'SF Mono', 'Fira Code', monospace" font-size="52" font-weight="bold" fill="url(#textGrad)">openclaws</text>
</svg>